<?xml version="1.0" encoding="UTF-8" standalone="no"?>
<!DOCTYPE svg PUBLIC "-//W3C//DTD SVG 1.1//EN"
 "http://www.w3.org/Graphics/SVG/1.1/DTD/svg11.dtd">
<!-- Generated by graphviz version 2.44.1 (20200629.0846)
 -->
<!-- Title: models_diagram Pages: 1 -->
<svg width="972pt" height="260pt"
 viewBox="0.00 0.00 972.15 260.00" xmlns="http://www.w3.org/2000/svg" xmlns:xlink="http://www.w3.org/1999/xlink">
<g id="graph0" class="graph" transform="scale(1 1) rotate(0) translate(4 256)">
<title>models_diagram</title>
<polygon fill="transparent" stroke="transparent" points="-4,4 -4,-256 968.15,-256 968.15,4 -4,4"/>
<!-- Mapping -->
<g id="node1" class="node">
<title>Mapping</title>
<ellipse fill="none" stroke="black" cx="42.9" cy="-162" rx="42.79" ry="18"/>
<text text-anchor="middle" x="42.9" y="-158.3" font-family="Times,serif" font-size="14.00">Mapping</text>
</g>
<!-- Import -->
<g id="node8" class="node">
<title>Import</title>
<ellipse fill="none" stroke="black" cx="108.9" cy="-90" rx="35.19" ry="18"/>
<text text-anchor="middle" x="108.9" y="-86.3" font-family="Times,serif" font-size="14.00">Import</text>
</g>
<!-- Mapping&#45;&gt;Import -->
<g id="edge1" class="edge">
<title>Mapping&#45;&gt;Import</title>
<path fill="none" stroke="#57d24a" d="M57.87,-145.12C66.48,-135.99 77.45,-124.36 87.01,-114.22"/>
<polygon fill="#57d24a" stroke="#57d24a" points="89.67,-116.5 93.98,-106.82 84.57,-111.7 89.67,-116.5"/>
</g>
<!-- Document -->
<g id="node2" class="node">
<title>Document</title>
<ellipse fill="none" stroke="black" cx="599.9" cy="-90" rx="48.19" ry="18"/>
<text text-anchor="middle" x="599.9" y="-86.3" font-family="Times,serif" font-size="14.00">Document</text>
</g>
<!-- Bookmark -->
<g id="node3" class="node">
<title>Bookmark</title>
<ellipse fill="none" stroke="black" cx="721.9" cy="-162" rx="48.19" ry="18"/>
<text text-anchor="middle" x="721.9" y="-158.3" font-family="Times,serif" font-size="14.00">Bookmark</text>
</g>
<!-- Bookmark&#45;&gt;Document -->
<g id="edge4" class="edge">
<title>Bookmark&#45;&gt;Document</title>
<path fill="none" stroke="#7c3b19" d="M696.62,-146.5C678.46,-136.08 653.78,-121.92 633.9,-110.51"/>
<polygon fill="#7c3b19" stroke="#7c3b19" points="635.56,-107.43 625.14,-105.49 632.07,-113.5 635.56,-107.43"/>
</g>
<!-- User -->
<g id="node11" class="node">
<title>User</title>
<ellipse fill="none" stroke="black" cx="721.9" cy="-90" rx="27.1" ry="18"/>
<text text-anchor="middle" x="721.9" y="-86.3" font-family="Times,serif" font-size="14.00">User</text>
</g>
<!-- Bookmark&#45;&gt;User -->
<g id="edge3" class="edge">
<title>Bookmark&#45;&gt;User</title>
<path fill="none" stroke="#10e316" d="M716.02,-144.05C715.19,-136.23 714.95,-126.75 715.31,-117.98"/>
<polygon fill="#10e316" stroke="#10e316" points="718.81,-118.01 716.03,-107.79 711.83,-117.51 718.81,-118.01"/>
</g>
<!-- ActiveStorageAttachment -->
<g id="node4" class="node">
<title>ActiveStorageAttachment</title>
<ellipse fill="none" stroke="black" cx="366.9" cy="-162" rx="102.88" ry="18"/>
<text text-anchor="middle" x="366.9" y="-158.3" font-family="Times,serif" font-size="14.00">ActiveStorageAttachment</text>
</g>
<!-- DocumentTransition -->
<g id="node5" class="node">
<title>DocumentTransition</title>
<ellipse fill="none" stroke="black" cx="571.9" cy="-162" rx="83.69" ry="18"/>
<text text-anchor="middle" x="571.9" y="-158.3" font-family="Times,serif" font-size="14.00">DocumentTransition</text>
</g>
<!-- DocumentTransition&#45;&gt;Document -->
<g id="edge7" class="edge">
<title>DocumentTransition&#45;&gt;Document</title>
<path fill="none" stroke="#92c809" d="M578.67,-144.05C581.83,-136.18 585.65,-126.62 589.18,-117.79"/>
<polygon fill="#92c809" stroke="#92c809" points="592.52,-118.86 592.99,-108.28 586.02,-116.26 592.52,-118.86"/>
</g>
<!-- ImportTransition -->
<g id="node6" class="node">
<title>ImportTransition</title>
<ellipse fill="none" stroke="black" cx="174.9" cy="-162" rx="71.49" ry="18"/>
<text text-anchor="middle" x="174.9" y="-158.3" font-family="Times,serif" font-size="14.00">ImportTransition</text>
</g>
<!-- ImportTransition&#45;&gt;Import -->
<g id="edge9" class="edge">
<title>ImportTransition&#45;&gt;Import</title>
<path fill="none" stroke="#5e478c" d="M159.26,-144.41C150.71,-135.35 140,-123.99 130.66,-114.08"/>
<polygon fill="#5e478c" stroke="#5e478c" points="132.93,-111.39 123.52,-106.51 127.83,-116.19 132.93,-111.39"/>
</g>
<!-- ActiveStorageBlob -->
<g id="node7" class="node">
<title>ActiveStorageBlob</title>
<ellipse fill="none" stroke="black" cx="865.9" cy="-162" rx="77.99" ry="18"/>
<text text-anchor="middle" x="865.9" y="-158.3" font-family="Times,serif" font-size="14.00">ActiveStorageBlob</text>
</g>
<!-- ImportBtaa -->
<g id="node10" class="node">
<title>ImportBtaa</title>
<ellipse fill="none" stroke="black" cx="108.9" cy="-18" rx="51.19" ry="18"/>
<text text-anchor="middle" x="108.9" y="-14.3" font-family="Times,serif" font-size="14.00">ImportBtaa</text>
</g>
<!-- Import&#45;&gt;ImportBtaa -->
<g id="edge12" class="edge">
<title>Import&#45;&gt;ImportBtaa</title>
<path fill="none" stroke="black" d="M108.9,-71.7C108.9,-60.85 108.9,-46.92 108.9,-36.1"/>
</g>
<!-- ApplicationRecord -->
<g id="node9" class="node">
<title>ApplicationRecord</title>
<ellipse fill="none" stroke="black" cx="571.9" cy="-234" rx="77.19" ry="18"/>
<text text-anchor="middle" x="571.9" y="-230.3" font-family="Times,serif" font-size="14.00">ApplicationRecord</text>
</g>
<!-- ApplicationRecord&#45;&gt;Mapping -->
<g id="edge2" class="edge">
<title>ApplicationRecord&#45;&gt;Mapping</title>
<path fill="none" stroke="black" d="M496.77,-229.43C402.14,-223.84 234.96,-210.34 94.9,-180 88.12,-178.53 80.98,-176.52 74.23,-174.39"/>
</g>
<!-- ApplicationRecord&#45;&gt;Bookmark -->
<g id="edge5" class="edge">
<title>ApplicationRecord&#45;&gt;Bookmark</title>
<path fill="none" stroke="black" d="M604.81,-217.64C631.2,-205.32 667.87,-188.21 693.1,-176.44"/>
</g>
<!-- ApplicationRecord&#45;&gt;ActiveStorageAttachment -->
<g id="edge6" class="edge">
<title>ApplicationRecord&#45;&gt;ActiveStorageAttachment</title>
<path fill="none" stroke="black" d="M529.92,-218.67C495.48,-206.91 446.84,-190.3 411.66,-178.29"/>
</g>
<!-- ApplicationRecord&#45;&gt;DocumentTransition -->
<g id="edge8" class="edge">
<title>ApplicationRecord&#45;&gt;DocumentTransition</title>
<path fill="none" stroke="black" d="M571.9,-215.7C571.9,-204.85 571.9,-190.92 571.9,-180.1"/>
</g>
<!-- ApplicationRecord&#45;&gt;ImportTransition -->
<g id="edge10" class="edge">
<title>ApplicationRecord&#45;&gt;ImportTransition</title>
<path fill="none" stroke="black" d="M509.2,-223.35C445.15,-213.29 342.88,-196.7 254.9,-180 245.83,-178.28 236.21,-176.34 226.9,-174.4"/>
</g>
<!-- ApplicationRecord&#45;&gt;ActiveStorageBlob -->
<g id="edge11" class="edge">
<title>ApplicationRecord&#45;&gt;ActiveStorageBlob</title>
<path fill="none" stroke="black" d="M623.78,-220.65C677.19,-207.93 759.96,-188.22 813.54,-175.47"/>
</g>
<!-- ApplicationRecord&#45;&gt;User -->
<g id="edge15" class="edge">
<title>ApplicationRecord&#45;&gt;User</title>
<path fill="none" stroke="black" d="M649.38,-233.69C749.17,-232.73 914.36,-224.26 952.9,-180 1011.66,-112.49 821.96,-95.92 749.14,-92.09"/>
</g>
<!-- User&#45;&gt;Bookmark -->
<g id="edge14" class="edge">
<title>User&#45;&gt;Bookmark</title>
<path fill="none" stroke="#0601d3" d="M728.39,-115.93C728.69,-121.73 728.73,-127.95 728.49,-133.85"/>
<ellipse fill="none" stroke="#0601d3" cx="728.07" cy="-111.78" rx="4" ry="4"/>
<polygon fill="#0601d3" stroke="#0601d3" points="728.48,-134.08 723.29,-143.74 728.13,-139.07 727.77,-144.05 727.77,-144.05 727.77,-144.05 728.13,-139.07 732.26,-144.37 728.48,-134.08 728.48,-134.08"/>
</g>
<!-- InvitedBy -->
<g id="node12" class="node">
<title>InvitedBy</title>
<ellipse fill="none" stroke="black" cx="721.9" cy="-18" rx="46.29" ry="18"/>
<text text-anchor="middle" x="721.9" y="-14.3" font-family="Times,serif" font-size="14.00">InvitedBy</text>
</g>
<!-- User&#45;&gt;InvitedBy -->
<g id="edge13" class="edge">
<title>User&#45;&gt;InvitedBy</title>
<path fill="none" stroke="#0568aa" d="M721.9,-71.7C721.9,-63.98 721.9,-54.71 721.9,-46.11"/>
<polygon fill="#0568aa" stroke="#0568aa" points="725.4,-46.1 721.9,-36.1 718.4,-46.1 725.4,-46.1"/>
</g>
</g>
</svg>
