<?xml version="1.0" encoding="UTF-8" standalone="no"?>
<!DOCTYPE svg PUBLIC "-//W3C//DTD SVG 1.1//EN"
 "http://www.w3.org/Graphics/SVG/1.1/DTD/svg11.dtd">
<!-- Generated by graphviz version 2.44.1 (20200629.0846)
 -->
<!-- Title: models_diagram Pages: 1 -->
<svg width="1658pt" height="848pt"
 viewBox="0.00 0.00 1658.22 848.00" xmlns="http://www.w3.org/2000/svg" xmlns:xlink="http://www.w3.org/1999/xlink">
<g id="graph0" class="graph" transform="scale(1 1) rotate(0) translate(4 844)">
<title>models_diagram</title>
<polygon fill="transparent" stroke="transparent" points="-4,4 -4,-844 1654.22,-844 1654.22,4 -4,4"/>
<!-- Mapping -->
<g id="node1" class="node">
<title>Mapping</title>
<path fill="none" stroke="black" d="M12,-616.5C12,-616.5 248,-616.5 248,-616.5 254,-616.5 260,-622.5 260,-628.5 260,-628.5 260,-755.5 260,-755.5 260,-761.5 254,-767.5 248,-767.5 248,-767.5 12,-767.5 12,-767.5 6,-767.5 0,-761.5 0,-755.5 0,-755.5 0,-628.5 0,-628.5 0,-622.5 6,-616.5 12,-616.5"/>
<text text-anchor="middle" x="130" y="-752.3" font-family="Times,serif" font-size="14.00">Mapping</text>
<polyline fill="none" stroke="black" points="0,-744.5 260,-744.5 "/>
<text text-anchor="start" x="8" y="-729.3" font-family="Times,serif" font-size="14.00">created_at :timestamp(6) without time zone</text>
<text text-anchor="start" x="8" y="-714.3" font-family="Times,serif" font-size="14.00">delimited :boolean</text>
<text text-anchor="start" x="8" y="-699.3" font-family="Times,serif" font-size="14.00">destination_field :character varying</text>
<text text-anchor="start" x="8" y="-684.3" font-family="Times,serif" font-size="14.00">id :bigint</text>
<text text-anchor="start" x="8" y="-669.3" font-family="Times,serif" font-size="14.00">import_id :bigint</text>
<text text-anchor="start" x="8" y="-654.3" font-family="Times,serif" font-size="14.00">source_header :character varying</text>
<text text-anchor="start" x="8" y="-639.3" font-family="Times,serif" font-size="14.00">transformation_method :character varying</text>
<text text-anchor="start" x="8" y="-624.3" font-family="Times,serif" font-size="14.00">updated_at :timestamp(6) without time zone</text>
</g>
<!-- Import -->
<g id="node8" class="node">
<title>Import</title>
<path fill="none" stroke="black" d="M151,-308.5C151,-308.5 387,-308.5 387,-308.5 393,-308.5 399,-314.5 399,-320.5 399,-320.5 399,-567.5 399,-567.5 399,-573.5 393,-579.5 387,-579.5 387,-579.5 151,-579.5 151,-579.5 145,-579.5 139,-573.5 139,-567.5 139,-567.5 139,-320.5 139,-320.5 139,-314.5 145,-308.5 151,-308.5"/>
<text text-anchor="middle" x="269" y="-564.3" font-family="Times,serif" font-size="14.00">Import</text>
<polyline fill="none" stroke="black" points="139,-556.5 399,-556.5 "/>
<text text-anchor="start" x="147" y="-541.3" font-family="Times,serif" font-size="14.00">content_type :character varying</text>
<text text-anchor="start" x="147" y="-526.3" font-family="Times,serif" font-size="14.00">created_at :timestamp(6) without time zone</text>
<text text-anchor="start" x="147" y="-511.3" font-family="Times,serif" font-size="14.00">description :text</text>
<text text-anchor="start" x="147" y="-496.3" font-family="Times,serif" font-size="14.00">encoding :character varying</text>
<text text-anchor="start" x="147" y="-481.3" font-family="Times,serif" font-size="14.00">extension :character varying</text>
<text text-anchor="start" x="147" y="-466.3" font-family="Times,serif" font-size="14.00">filename :character varying</text>
<text text-anchor="start" x="147" y="-451.3" font-family="Times,serif" font-size="14.00">headers :text</text>
<text text-anchor="start" x="147" y="-436.3" font-family="Times,serif" font-size="14.00">id :bigint</text>
<text text-anchor="start" x="147" y="-421.3" font-family="Times,serif" font-size="14.00">import_log :json</text>
<text text-anchor="start" x="147" y="-406.3" font-family="Times,serif" font-size="14.00">name :character varying</text>
<text text-anchor="start" x="147" y="-391.3" font-family="Times,serif" font-size="14.00">row_count :integer</text>
<text text-anchor="start" x="147" y="-376.3" font-family="Times,serif" font-size="14.00">source :character varying</text>
<text text-anchor="start" x="147" y="-361.3" font-family="Times,serif" font-size="14.00">type :character varying</text>
<text text-anchor="start" x="147" y="-346.3" font-family="Times,serif" font-size="14.00">updated_at :timestamp(6) without time zone</text>
<text text-anchor="start" x="147" y="-331.3" font-family="Times,serif" font-size="14.00">validation_result :text</text>
<text text-anchor="start" x="147" y="-316.3" font-family="Times,serif" font-size="14.00">validity :boolean</text>
</g>
<!-- Mapping&#45;&gt;Import -->
<g id="edge1" class="edge">
<title>Mapping&#45;&gt;Import</title>
<path fill="none" stroke="#07b608" d="M172.27,-616.19C177.29,-607.32 182.52,-598.04 187.86,-588.6"/>
<polygon fill="#07b608" stroke="#07b608" points="190.91,-590.32 192.78,-579.9 184.81,-586.88 190.91,-590.32"/>
</g>
<!-- Document -->
<g id="node2" class="node">
<title>Document</title>
<path fill="none" stroke="black" d="M834,-316C834,-316 1054,-316 1054,-316 1060,-316 1066,-322 1066,-328 1066,-328 1066,-560 1066,-560 1066,-566 1060,-572 1054,-572 1054,-572 834,-572 834,-572 828,-572 822,-566 822,-560 822,-560 822,-328 822,-328 822,-322 828,-316 834,-316"/>
<text text-anchor="middle" x="944" y="-556.8" font-family="Times,serif" font-size="14.00">Document</text>
<polyline fill="none" stroke="black" points="822,-549 1066,-549 "/>
<text text-anchor="start" x="830" y="-533.8" font-family="Times,serif" font-size="14.00">created_at :timestamp without time zone</text>
<text text-anchor="start" x="830" y="-518.8" font-family="Times,serif" font-size="14.00">file_data :jsonb</text>
<text text-anchor="start" x="830" y="-503.8" font-family="Times,serif" font-size="14.00">friendlier_id :character varying</text>
<text text-anchor="start" x="830" y="-488.8" font-family="Times,serif" font-size="14.00">id :uuid</text>
<text text-anchor="start" x="830" y="-473.8" font-family="Times,serif" font-size="14.00">import_id :bigint</text>
<text text-anchor="start" x="830" y="-458.8" font-family="Times,serif" font-size="14.00">json_attributes :jsonb</text>
<text text-anchor="start" x="830" y="-443.8" font-family="Times,serif" font-size="14.00">kithe_model_type :integer</text>
<text text-anchor="start" x="830" y="-428.8" font-family="Times,serif" font-size="14.00">leaf_representative_id :uuid</text>
<text text-anchor="start" x="830" y="-413.8" font-family="Times,serif" font-size="14.00">parent_id :uuid</text>
<text text-anchor="start" x="830" y="-398.8" font-family="Times,serif" font-size="14.00">position :integer</text>
<text text-anchor="start" x="830" y="-383.8" font-family="Times,serif" font-size="14.00">publication_state :character varying</text>
<text text-anchor="start" x="830" y="-368.8" font-family="Times,serif" font-size="14.00">representative_id :uuid</text>
<text text-anchor="start" x="830" y="-353.8" font-family="Times,serif" font-size="14.00">title :character varying</text>
<text text-anchor="start" x="830" y="-338.8" font-family="Times,serif" font-size="14.00">type :character varying</text>
<text text-anchor="start" x="830" y="-323.8" font-family="Times,serif" font-size="14.00">updated_at :timestamp without time zone</text>
</g>
<!-- Bookmark -->
<g id="node3" class="node">
<title>Bookmark</title>
<path fill="none" stroke="black" d="M1104,-616.5C1104,-616.5 1340,-616.5 1340,-616.5 1346,-616.5 1352,-622.5 1352,-628.5 1352,-628.5 1352,-755.5 1352,-755.5 1352,-761.5 1346,-767.5 1340,-767.5 1340,-767.5 1104,-767.5 1104,-767.5 1098,-767.5 1092,-761.5 1092,-755.5 1092,-755.5 1092,-628.5 1092,-628.5 1092,-622.5 1098,-616.5 1104,-616.5"/>
<text text-anchor="middle" x="1222" y="-752.3" font-family="Times,serif" font-size="14.00">Bookmark</text>
<polyline fill="none" stroke="black" points="1092,-744.5 1352,-744.5 "/>
<text text-anchor="start" x="1100" y="-729.3" font-family="Times,serif" font-size="14.00">created_at :timestamp(6) without time zone</text>
<text text-anchor="start" x="1100" y="-714.3" font-family="Times,serif" font-size="14.00">document_id :character varying</text>
<text text-anchor="start" x="1100" y="-699.3" font-family="Times,serif" font-size="14.00">document_type :character varying</text>
<text text-anchor="start" x="1100" y="-684.3" font-family="Times,serif" font-size="14.00">id :bigint</text>
<text text-anchor="start" x="1100" y="-669.3" font-family="Times,serif" font-size="14.00">title :bytea</text>
<text text-anchor="start" x="1100" y="-654.3" font-family="Times,serif" font-size="14.00">updated_at :timestamp(6) without time zone</text>
<text text-anchor="start" x="1100" y="-639.3" font-family="Times,serif" font-size="14.00">user_id :integer</text>
<text text-anchor="start" x="1100" y="-624.3" font-family="Times,serif" font-size="14.00">user_type :character varying</text>
</g>
<!-- Bookmark&#45;&gt;Document -->
<g id="edge4" class="edge">
<title>Bookmark&#45;&gt;Document</title>
<path fill="none" stroke="#dc5c9a" d="M1119.93,-616.45C1104.91,-604.61 1089.84,-592.22 1076,-580 1075.17,-579.27 1074.34,-578.53 1073.51,-577.79"/>
<polygon fill="#dc5c9a" stroke="#dc5c9a" points="1075.78,-575.12 1066.01,-571.03 1071.09,-580.32 1075.78,-575.12"/>
</g>
<!-- User -->
<g id="node11" class="node">
<title>User</title>
<path fill="none" stroke="black" d="M1096.5,-308.5C1096.5,-308.5 1385.5,-308.5 1385.5,-308.5 1391.5,-308.5 1397.5,-314.5 1397.5,-320.5 1397.5,-320.5 1397.5,-567.5 1397.5,-567.5 1397.5,-573.5 1391.5,-579.5 1385.5,-579.5 1385.5,-579.5 1096.5,-579.5 1096.5,-579.5 1090.5,-579.5 1084.5,-573.5 1084.5,-567.5 1084.5,-567.5 1084.5,-320.5 1084.5,-320.5 1084.5,-314.5 1090.5,-308.5 1096.5,-308.5"/>
<text text-anchor="middle" x="1241" y="-564.3" font-family="Times,serif" font-size="14.00">User</text>
<polyline fill="none" stroke="black" points="1084.5,-556.5 1397.5,-556.5 "/>
<text text-anchor="start" x="1092.5" y="-541.3" font-family="Times,serif" font-size="14.00">created_at :timestamp(6) without time zone</text>
<text text-anchor="start" x="1092.5" y="-526.3" font-family="Times,serif" font-size="14.00">email :character varying</text>
<text text-anchor="start" x="1092.5" y="-511.3" font-family="Times,serif" font-size="14.00">encrypted_password :character varying</text>
<text text-anchor="start" x="1092.5" y="-496.3" font-family="Times,serif" font-size="14.00">id :bigint</text>
<text text-anchor="start" x="1092.5" y="-481.3" font-family="Times,serif" font-size="14.00">invitation_accepted_at :timestamp without time zone</text>
<text text-anchor="start" x="1092.5" y="-466.3" font-family="Times,serif" font-size="14.00">invitation_created_at :timestamp without time zone</text>
<text text-anchor="start" x="1092.5" y="-451.3" font-family="Times,serif" font-size="14.00">invitation_limit :integer</text>
<text text-anchor="start" x="1092.5" y="-436.3" font-family="Times,serif" font-size="14.00">invitation_sent_at :timestamp without time zone</text>
<text text-anchor="start" x="1092.5" y="-421.3" font-family="Times,serif" font-size="14.00">invitation_token :character varying</text>
<text text-anchor="start" x="1092.5" y="-406.3" font-family="Times,serif" font-size="14.00">invitations_count :integer</text>
<text text-anchor="start" x="1092.5" y="-391.3" font-family="Times,serif" font-size="14.00">invited_by_id :bigint</text>
<text text-anchor="start" x="1092.5" y="-376.3" font-family="Times,serif" font-size="14.00">invited_by_type :character varying</text>
<text text-anchor="start" x="1092.5" y="-361.3" font-family="Times,serif" font-size="14.00">remember_created_at :timestamp without time zone</text>
<text text-anchor="start" x="1092.5" y="-346.3" font-family="Times,serif" font-size="14.00">reset_password_sent_at :timestamp without time zone</text>
<text text-anchor="start" x="1092.5" y="-331.3" font-family="Times,serif" font-size="14.00">reset_password_token :character varying</text>
<text text-anchor="start" x="1092.5" y="-316.3" font-family="Times,serif" font-size="14.00">updated_at :timestamp(6) without time zone</text>
</g>
<!-- Bookmark&#45;&gt;User -->
<g id="edge3" class="edge">
<title>Bookmark&#45;&gt;User</title>
<path fill="none" stroke="#04ef4d" d="M1221.51,-616.19C1221.98,-607.77 1222.53,-598.99 1223.14,-590.05"/>
<polygon fill="#04ef4d" stroke="#04ef4d" points="1226.65,-590.12 1223.86,-579.9 1219.67,-589.63 1226.65,-590.12"/>
</g>
<!-- ActiveStorageAttachment -->
<g id="node4" class="node">
<title>ActiveStorageAttachment</title>
<path fill="none" stroke="black" d="M568,-631.5C568,-631.5 784,-631.5 784,-631.5 790,-631.5 796,-637.5 796,-643.5 796,-643.5 796,-740.5 796,-740.5 796,-746.5 790,-752.5 784,-752.5 784,-752.5 568,-752.5 568,-752.5 562,-752.5 556,-746.5 556,-740.5 556,-740.5 556,-643.5 556,-643.5 556,-637.5 562,-631.5 568,-631.5"/>
<text text-anchor="middle" x="676" y="-737.3" font-family="Times,serif" font-size="14.00">ActiveStorageAttachment</text>
<polyline fill="none" stroke="black" points="556,-729.5 796,-729.5 "/>
<text text-anchor="start" x="564" y="-714.3" font-family="Times,serif" font-size="14.00">blob_id :bigint</text>
<text text-anchor="start" x="564" y="-699.3" font-family="Times,serif" font-size="14.00">created_at :timestamp without time zone</text>
<text text-anchor="start" x="564" y="-684.3" font-family="Times,serif" font-size="14.00">id :bigint</text>
<text text-anchor="start" x="564" y="-669.3" font-family="Times,serif" font-size="14.00">name :character varying</text>
<text text-anchor="start" x="564" y="-654.3" font-family="Times,serif" font-size="14.00">record_id :bigint</text>
<text text-anchor="start" x="564" y="-639.3" font-family="Times,serif" font-size="14.00">record_type :character varying</text>
</g>
<!-- DocumentTransition -->
<g id="node5" class="node">
<title>DocumentTransition</title>
<path fill="none" stroke="black" d="M826,-616.5C826,-616.5 1062,-616.5 1062,-616.5 1068,-616.5 1074,-622.5 1074,-628.5 1074,-628.5 1074,-755.5 1074,-755.5 1074,-761.5 1068,-767.5 1062,-767.5 1062,-767.5 826,-767.5 826,-767.5 820,-767.5 814,-761.5 814,-755.5 814,-755.5 814,-628.5 814,-628.5 814,-622.5 820,-616.5 826,-616.5"/>
<text text-anchor="middle" x="944" y="-752.3" font-family="Times,serif" font-size="14.00">DocumentTransition</text>
<polyline fill="none" stroke="black" points="814,-744.5 1074,-744.5 "/>
<text text-anchor="start" x="822" y="-729.3" font-family="Times,serif" font-size="14.00">created_at :timestamp(6) without time zone</text>
<text text-anchor="start" x="822" y="-714.3" font-family="Times,serif" font-size="14.00">id :bigint</text>
<text text-anchor="start" x="822" y="-699.3" font-family="Times,serif" font-size="14.00">kithe_model_id :uuid</text>
<text text-anchor="start" x="822" y="-684.3" font-family="Times,serif" font-size="14.00">metadata :text</text>
<text text-anchor="start" x="822" y="-669.3" font-family="Times,serif" font-size="14.00">most_recent :boolean</text>
<text text-anchor="start" x="822" y="-654.3" font-family="Times,serif" font-size="14.00">sort_key :integer</text>
<text text-anchor="start" x="822" y="-639.3" font-family="Times,serif" font-size="14.00">to_state :character varying</text>
<text text-anchor="start" x="822" y="-624.3" font-family="Times,serif" font-size="14.00">updated_at :timestamp(6) without time zone</text>
</g>
<!-- DocumentTransition&#45;&gt;Document -->
<g id="edge7" class="edge">
<title>DocumentTransition&#45;&gt;Document</title>
<path fill="none" stroke="#0c28e8" d="M944,-616.19C944,-605.37 944,-593.95 944,-582.36"/>
<polygon fill="#0c28e8" stroke="#0c28e8" points="947.5,-582.15 944,-572.15 940.5,-582.15 947.5,-582.15"/>
</g>
<!-- ImportTransition -->
<g id="node6" class="node">
<title>ImportTransition</title>
<path fill="none" stroke="black" d="M290,-616.5C290,-616.5 526,-616.5 526,-616.5 532,-616.5 538,-622.5 538,-628.5 538,-628.5 538,-755.5 538,-755.5 538,-761.5 532,-767.5 526,-767.5 526,-767.5 290,-767.5 290,-767.5 284,-767.5 278,-761.5 278,-755.5 278,-755.5 278,-628.5 278,-628.5 278,-622.5 284,-616.5 290,-616.5"/>
<text text-anchor="middle" x="408" y="-752.3" font-family="Times,serif" font-size="14.00">ImportTransition</text>
<polyline fill="none" stroke="black" points="278,-744.5 538,-744.5 "/>
<text text-anchor="start" x="286" y="-729.3" font-family="Times,serif" font-size="14.00">created_at :timestamp(6) without time zone</text>
<text text-anchor="start" x="286" y="-714.3" font-family="Times,serif" font-size="14.00">id :bigint</text>
<text text-anchor="start" x="286" y="-699.3" font-family="Times,serif" font-size="14.00">import_id :integer</text>
<text text-anchor="start" x="286" y="-684.3" font-family="Times,serif" font-size="14.00">metadata :text</text>
<text text-anchor="start" x="286" y="-669.3" font-family="Times,serif" font-size="14.00">most_recent :boolean</text>
<text text-anchor="start" x="286" y="-654.3" font-family="Times,serif" font-size="14.00">sort_key :integer</text>
<text text-anchor="start" x="286" y="-639.3" font-family="Times,serif" font-size="14.00">to_state :character varying</text>
<text text-anchor="start" x="286" y="-624.3" font-family="Times,serif" font-size="14.00">updated_at :timestamp(6) without time zone</text>
</g>
<!-- ImportTransition&#45;&gt;Import -->
<g id="edge9" class="edge">
<title>ImportTransition&#45;&gt;Import</title>
<path fill="none" stroke="#9ae84c" d="M365.73,-616.19C360.71,-607.32 355.48,-598.04 350.14,-588.6"/>
<polygon fill="#9ae84c" stroke="#9ae84c" points="353.19,-586.88 345.22,-579.9 347.09,-590.32 353.19,-586.88"/>
</g>
<!-- ActiveStorageBlob -->
<g id="node7" class="node">
<title>ActiveStorageBlob</title>
<path fill="none" stroke="black" d="M1382,-616.5C1382,-616.5 1598,-616.5 1598,-616.5 1604,-616.5 1610,-622.5 1610,-628.5 1610,-628.5 1610,-755.5 1610,-755.5 1610,-761.5 1604,-767.5 1598,-767.5 1598,-767.5 1382,-767.5 1382,-767.5 1376,-767.5 1370,-761.5 1370,-755.5 1370,-755.5 1370,-628.5 1370,-628.5 1370,-622.5 1376,-616.5 1382,-616.5"/>
<text text-anchor="middle" x="1490" y="-752.3" font-family="Times,serif" font-size="14.00">ActiveStorageBlob</text>
<polyline fill="none" stroke="black" points="1370,-744.5 1610,-744.5 "/>
<text text-anchor="start" x="1378" y="-729.3" font-family="Times,serif" font-size="14.00">byte_size :bigint</text>
<text text-anchor="start" x="1378" y="-714.3" font-family="Times,serif" font-size="14.00">checksum :character varying</text>
<text text-anchor="start" x="1378" y="-699.3" font-family="Times,serif" font-size="14.00">content_type :character varying</text>
<text text-anchor="start" x="1378" y="-684.3" font-family="Times,serif" font-size="14.00">created_at :timestamp without time zone</text>
<text text-anchor="start" x="1378" y="-669.3" font-family="Times,serif" font-size="14.00">filename :character varying</text>
<text text-anchor="start" x="1378" y="-654.3" font-family="Times,serif" font-size="14.00">id :bigint</text>
<text text-anchor="start" x="1378" y="-639.3" font-family="Times,serif" font-size="14.00">key :character varying</text>
<text text-anchor="start" x="1378" y="-624.3" font-family="Times,serif" font-size="14.00">metadata :text</text>
</g>
<!-- ImportBtaa -->
<g id="node10" class="node">
<title>ImportBtaa</title>
<path fill="none" stroke="black" d="M151,-0.5C151,-0.5 387,-0.5 387,-0.5 393,-0.5 399,-6.5 399,-12.5 399,-12.5 399,-259.5 399,-259.5 399,-265.5 393,-271.5 387,-271.5 387,-271.5 151,-271.5 151,-271.5 145,-271.5 139,-265.5 139,-259.5 139,-259.5 139,-12.5 139,-12.5 139,-6.5 145,-0.5 151,-0.5"/>
<text text-anchor="middle" x="269" y="-256.3" font-family="Times,serif" font-size="14.00">ImportBtaa</text>
<polyline fill="none" stroke="black" points="139,-248.5 399,-248.5 "/>
<text text-anchor="start" x="147" y="-233.3" font-family="Times,serif" font-size="14.00">content_type :character varying</text>
<text text-anchor="start" x="147" y="-218.3" font-family="Times,serif" font-size="14.00">created_at :timestamp(6) without time zone</text>
<text text-anchor="start" x="147" y="-203.3" font-family="Times,serif" font-size="14.00">description :text</text>
<text text-anchor="start" x="147" y="-188.3" font-family="Times,serif" font-size="14.00">encoding :character varying</text>
<text text-anchor="start" x="147" y="-173.3" font-family="Times,serif" font-size="14.00">extension :character varying</text>
<text text-anchor="start" x="147" y="-158.3" font-family="Times,serif" font-size="14.00">filename :character varying</text>
<text text-anchor="start" x="147" y="-143.3" font-family="Times,serif" font-size="14.00">headers :text</text>
<text text-anchor="start" x="147" y="-128.3" font-family="Times,serif" font-size="14.00">id :bigint</text>
<text text-anchor="start" x="147" y="-113.3" font-family="Times,serif" font-size="14.00">import_log :json</text>
<text text-anchor="start" x="147" y="-98.3" font-family="Times,serif" font-size="14.00">name :character varying</text>
<text text-anchor="start" x="147" y="-83.3" font-family="Times,serif" font-size="14.00">row_count :integer</text>
<text text-anchor="start" x="147" y="-68.3" font-family="Times,serif" font-size="14.00">source :character varying</text>
<text text-anchor="start" x="147" y="-53.3" font-family="Times,serif" font-size="14.00">type :character varying</text>
<text text-anchor="start" x="147" y="-38.3" font-family="Times,serif" font-size="14.00">updated_at :timestamp(6) without time zone</text>
<text text-anchor="start" x="147" y="-23.3" font-family="Times,serif" font-size="14.00">validation_result :text</text>
<text text-anchor="start" x="147" y="-8.3" font-family="Times,serif" font-size="14.00">validity :boolean</text>
</g>
<!-- Import&#45;&gt;ImportBtaa -->
<g id="edge12" class="edge">
<title>Import&#45;&gt;ImportBtaa</title>
<path fill="none" stroke="black" d="M269,-308.34C269,-296.15 269,-283.81 269,-271.62"/>
</g>
<!-- ApplicationRecord -->
<g id="node9" class="node">
<title>ApplicationRecord</title>
<ellipse fill="none" stroke="black" cx="944" cy="-822" rx="77.19" ry="18"/>
<text text-anchor="middle" x="944" y="-818.3" font-family="Times,serif" font-size="14.00">ApplicationRecord</text>
</g>
<!-- ApplicationRecord&#45;&gt;Mapping -->
<g id="edge2" class="edge">
<title>ApplicationRecord&#45;&gt;Mapping</title>
<path fill="none" stroke="black" d="M867.48,-818.97C715.18,-814.28 379.29,-800.5 269,-768 266.11,-767.15 263.21,-766.23 260.3,-765.25"/>
</g>
<!-- ApplicationRecord&#45;&gt;Bookmark -->
<g id="edge5" class="edge">
<title>ApplicationRecord&#45;&gt;Bookmark</title>
<path fill="none" stroke="black" d="M985.64,-806.73C1013.56,-796.77 1050.95,-782.68 1083,-768 1085.87,-766.69 1088.76,-765.34 1091.66,-763.97"/>
</g>
<!-- ApplicationRecord&#45;&gt;ActiveStorageAttachment -->
<g id="edge6" class="edge">
<title>ApplicationRecord&#45;&gt;ActiveStorageAttachment</title>
<path fill="none" stroke="black" d="M901.59,-806.85C873.67,-797.04 836.58,-783.08 805,-768 795.06,-763.26 784.87,-758.02 774.78,-752.59"/>
</g>
<!-- ApplicationRecord&#45;&gt;DocumentTransition -->
<g id="edge8" class="edge">
<title>ApplicationRecord&#45;&gt;DocumentTransition</title>
<path fill="none" stroke="black" d="M944,-803.74C944,-794.05 944,-781.21 944,-767.73"/>
</g>
<!-- ApplicationRecord&#45;&gt;ImportTransition -->
<g id="edge10" class="edge">
<title>ApplicationRecord&#45;&gt;ImportTransition</title>
<path fill="none" stroke="black" d="M867.57,-818.95C786.28,-814.9 654.81,-802.98 547,-768 544.13,-767.07 541.25,-766.08 538.37,-765.04"/>
</g>
<!-- ApplicationRecord&#45;&gt;ActiveStorageBlob -->
<g id="edge11" class="edge">
<title>ApplicationRecord&#45;&gt;ActiveStorageBlob</title>
<path fill="none" stroke="black" d="M1021.38,-820.31C1106.69,-817.48 1246.95,-806.62 1361,-768 1363.94,-767 1366.9,-765.93 1369.85,-764.8"/>
</g>
<!-- ApplicationRecord&#45;&gt;User -->
<g id="edge15" class="edge">
<title>ApplicationRecord&#45;&gt;User</title>
<path fill="none" stroke="black" d="M1021.36,-820.69C1190.04,-819.22 1579.13,-811.13 1619,-768 1664.86,-718.4 1655.62,-672.77 1619,-616 1570.09,-540.19 1478.56,-497.63 1397.82,-473.93"/>
</g>
<!-- User&#45;&gt;Bookmark -->
<g id="edge14" class="edge">
<title>User&#45;&gt;Bookmark</title>
<path fill="none" stroke="#ec89cc" d="M1236.61,-588.15C1236.1,-594.18 1235.57,-600.14 1235.02,-605.98"/>
<ellipse fill="none" stroke="#ec89cc" cx="1236.97" cy="-583.88" rx="4" ry="4"/>
<polygon fill="#ec89cc" stroke="#ec89cc" points="1235,-606.24 1229.57,-615.76 1234.52,-611.21 1234.04,-616.19 1234.04,-616.19 1234.04,-616.19 1234.52,-611.21 1238.52,-616.62 1235,-606.24 1235,-606.24"/>
</g>
<!-- InvitedBy -->
<g id="node12" class="node">
<title>InvitedBy</title>
<ellipse fill="none" stroke="black" cx="1241" cy="-136" rx="46.29" ry="18"/>
<text text-anchor="middle" x="1241" y="-132.3" font-family="Times,serif" font-size="14.00">InvitedBy</text>
</g>
<!-- User&#45;&gt;InvitedBy -->
<g id="edge13" class="edge">
<title>User&#45;&gt;InvitedBy</title>
<path fill="none" stroke="#4dc03a" d="M1241,-308.34C1241,-254.17 1241,-196.9 1241,-164.19"/>
<polygon fill="#4dc03a" stroke="#4dc03a" points="1244.5,-164.08 1241,-154.08 1237.5,-164.08 1244.5,-164.08"/>
</g>
</g>
</svg>
